inDegrees=yes
name=ik_s24_walk_orientation
DataType=double
version=3
OpenSimVersion=4.5
endheader
time	pelvis_tilt	pelvis_list	pelvis_rotation	pelvis_tx	pelvis_ty	pelvis_tz	hip_flexion_r	hip_adduction_r	hip_rotation_r	knee_angle_r	knee_angle_r_beta	ankle_angle_r	subtalar_angle_r	mtp_angle_r	hip_flexion_l	hip_adduction_l	hip_rotation_l	knee_angle_l	knee_angle_l_beta	ankle_angle_l	subtalar_angle_l	mtp_angle_l	lumbar_extension	lumbar_bending	lumbar_rotation	arm_flex_r	arm_add_r	arm_rot_r	elbow_flex_r	pro_sup_r	wrist_flex_r	wrist_dev_r	arm_flex_l	arm_add_l	arm_rot_l	elbow_flex_l	pro_sup_l	wrist_flex_l	wrist_dev_l
0	4.249695689192648	0.8720801788914613	88.88238960087746	0	0.93	0	-1.205927547200857	4.028864292531504	1.400664065120288	0.4761234724544841	0.008309922240359275	-1.241770448331814	0	0	-0.6032066898752196	-4.20949829760487	-0.4470773457243705	0.7278593883574971	0.01270354281839041	-1.241770448331814	0	0	0	0	-8.87534903033212e-12	0	0	89.89876661871409	1.144027087870505e-46	0	0	0	0	0	89.35984111556552	0	0	0	0
0.0192307692307692	-0.001859176284072892	0.0002327186457452608	89.23190835221375	0	0.93	0	0.3578165327740254	-0.02093135994843296	-0.09576222261879955	0.7160643143163176	0.01249767994085531	-1.292454010062426	0	0	0.396864489441329	-0.007743936313791922	-0.106317639954926	0.7412440675311612	0.01293714953929396	-1.292454010062426	0	0	0	0	-8.87534903033212e-12	0	0	89.61219704744339	9.612463936662621e-40	1.08692547630978e-38	0	0	0	0	89.6174570619324	0	4.604063046924935e-39	0	0
0.0384615384615385	-1.689481298129998	-0.0008191225445592815	99.46448671969364	-5.553580796750284e-40	0.93	8.689488722426232e-28	1.51422210328789	0.5985134971848461	-8.60614887107692	3.425751930642762	0.05979065054626862	-2.010195251071468	5.662375399612139e-15	-1.090899025365023e-15	-17.82372458787115	2.673576294923973	-39.99281946376018	0.09489950973532814	0.001656308903409888	-2.010195251071464	1.367477271600259e-14	3.820590492835577e-15	1.819413354528996e-15	-1.276152453180496e-15	-8.867779790107788e-12	-1.460201249783745e-14	-2.291669836114454e-16	83.47148114768609	7.786624047433169e-15	1.146591769047598e-14	1.199173574644322e-22	7.328404493939798e-22	-2.912889901918295e-14	1.485947518162572e-14	89.98558397835539	0	1.258988860117939e-14	2.797663587974112e-24	1.300577630574897e-22
0.0576923076923077	-3.218654285861367	-7.069905944973235	100.2237670886541	0	0.93	0	7.150248219746526	-3.197578006954327	-9.820042267419701	1.529814405697049	0.02670029832385381	-2.065755381801472	0	0	-9.963717566957945	2.707490778165485	-39.99037050998945	0.3540175779204742	0.006178772344647854	-2.065755381802548	0	0	0	0	-8.87534903033212e-12	0	0	82.8406525740871	0	0	0	0	0	0	89.96371181801446	0	0	0	0
0.0769230769230769	-3.206011060524828	-7.588604318979248	101.1242494160497	0	0.93	0	7.271819769722144	-4.454447824046741	-12.11341328322023	0.7465938712608533	0.01303052122871256	-2.088895464018137	0	0	-11.51469129987503	4.311790182327781	-39.99127914934129	0.1269799604229634	0.002216218393432804	-2.088895464019203	0	0	0	0	-8.87534903033212e-12	0	0	81.94945166084582	0	0	0	0	0	0	89.97033475672315	4.458089637657777e-40	3.564278830801983e-39	0	0
0.0961538461538462	-3.000357969427248	-8.102195504086884	101.5726568159179	0	0.93	0	12.37901028360525	-26.58377072943824	-24.39211262579246	0.01802095402334346	0.0003145249820516483	-2.259786870884012	-5.730550041247662e-08	3.936135094106086e-09	-11.50434132154431	3.945962219347093	-39.99168119503099	0.09933968324925671	0.001733804550580573	-2.259786870897853	-1.760650521622352e-07	-7.762644115533964e-11	-4.986439578041533e-14	3.484626362331526e-13	-1.044060973694814e-11	-2.042005975567082e-14	9.088331853076393e-14	81.50455518525054	3.823197398010723e-07	3.823715705582288e-07	6.20978195650458e-16	3.879518751347166e-16	1.416042889501234e-10	1.987298453617934e-10	89.97247733693938	3.823644487969223e-07	3.823593691006978e-07	-1.494959791913634e-16	1.396323471094049e-16
0.1153846153846154	-2.500782730477453	-8.569176111484188	100.3433757675628	0	0.93	0	13.37660232079648	-25.99868802989883	-22.5482859136539	0.01782968901697909	0.0003111867779529563	-2.28866311321667	0	0	-9.768772074575329	1.658087372167685	-39.99062930911158	0.149620657094306	0.002611373095293052	-2.288663113229949	0	0	0	0	-8.87534903033212e-12	0	0	83.51305455497894	0	7.170555675758469e-39	0	0	0	0	89.96579881539728	0	0	0	0
0.1346153846153846	-2.755717744526343	-8.959586613253144	101.2299947241777	0	0.93	0	12.95281592808238	-26.47516726019922	-23.38944040520881	0.01751912885935507	0.0003057664806769046	-2.318657704359048	0	0	-12.17809682703181	4.463029046945957	-39.99132180153613	0.06276749741907557	0.001095499493199912	-2.318657704372179	0	0	0	0	-8.87534903033212e-12	0	0	81.9052969074986	0	0	0	0	0	0	89.96907957664338	5.386264294493337e-39	0	0	0
0.1538461538461539	-2.821290427683027	-8.841886768205489	101.192341841734	0	0.93	0	12.49039997411306	-26.58324101574932	-23.55522359017441	0.01755906822552861	0.0003064635541177925	-2.337948642577977	0	0	-11.7679474337753	3.464187082674107	-39.9914048490267	0.07563843235150075	0.001320139685580685	-2.337948642591013	0	0	0	0	-8.87534903033212e-12	0	0	81.98950000566312	6.832646089338631e-39	0	0	0	0	0	89.96901537736267	2.008569509641536e-39	0	0	0
